<svg width="60" height="30" viewBox="0 0 60 30" fill="none" xmlns="http://www.w3.org/2000/svg">
<g clip-path="url(#clip0_1_9)">
<path d="M12.3668 9.18982C12.9441 8.98615 13.5599 8.87752 14.1987 8.87752C16.9954 8.87752 19.3303 10.9794 19.864 13.7739L23.8281 12.9184C22.9198 8.17145 18.9531 4.59763 14.1987 4.59763C13.1083 4.59763 12.064 4.78501 11.0839 5.13261L12.3668 9.18982Z" fill="#FFCB05"/>
<path d="M7.68939 22.7845L10.3706 19.5773C9.17497 18.4557 8.42063 16.8181 8.42063 14.9932C8.42063 13.171 9.17497 11.5334 10.3706 10.4146L7.68939 7.20467C5.6573 9.11107 4.37442 11.8946 4.37442 14.9932C4.37442 18.0945 5.6573 20.8781 7.68939 22.7845" fill="#00A4E0"/>
<path d="M19.864 16.2207C19.3277 19.0124 16.9954 21.1116 14.2013 21.1116C13.5599 21.1116 12.9415 21.003 12.3668 20.7966L11.0839 24.8592C12.064 25.2041 13.1109 25.3915 14.2013 25.3915C18.9505 25.3915 22.9146 21.8231 23.8281 17.0816L19.864 16.2207Z" fill="#EF4123"/>
<path d="M27.2944 19.7103C27.1636 19.4876 26.9891 19.1319 26.8813 18.8685C26.2527 17.326 26.2245 15.7292 26.753 14.1975C27.3355 12.5165 28.449 11.232 29.8884 10.5748C31.6973 9.75197 33.696 9.9122 35.4304 11.0012C36.5312 11.6692 37.3112 12.7012 37.9038 14.1622C37.9783 14.3496 38.045 14.5478 38.1117 14.7189L27.2944 19.7103ZM30.907 13.0542C29.6216 13.6381 28.9596 14.9145 29.0981 16.4081L34.5376 13.9287C33.6011 12.7664 32.3849 12.3807 30.907 13.0542ZM35.2149 18.4475C35.2124 18.4475 35.2124 18.4503 35.2124 18.4503L35.0995 18.3688C34.7736 18.9255 34.2682 19.379 33.6293 19.6723C32.4131 20.2317 31.2867 20.0878 30.476 19.3356L30.4015 19.4551C30.4015 19.4551 30.4015 19.4523 30.399 19.4523L29.0186 21.6385C29.3624 21.891 29.7293 22.1028 30.1142 22.2739C31.6382 22.9447 33.1982 22.9121 34.7351 22.206C35.8461 21.6955 36.7185 20.9188 37.3137 19.933L35.2149 18.4475ZM41.891 7.35947V19.5094L43.6768 20.2752L42.6633 22.779L40.6928 21.91C40.2515 21.7063 39.9488 21.3968 39.723 21.0464C39.5049 20.6907 39.3432 20.1992 39.3432 19.542V7.35947H41.891ZM46.5146 16.4162C46.5146 15.3816 46.9482 14.4528 47.6307 13.8228L45.7987 11.6611C44.5569 12.8234 43.7743 14.5207 43.7743 16.4108C43.7718 18.3036 44.5543 20.0036 45.7936 21.1659L47.623 19.0043C46.943 18.3715 46.5146 17.4482 46.5146 16.4162ZM49.7679 19.8624C49.4087 19.8624 49.0598 19.7972 48.7365 19.6832L47.8616 22.4341C48.4594 22.646 49.0983 22.7627 49.7654 22.7627C52.6647 22.7655 55.0842 20.5875 55.6461 17.6953L52.9572 17.1142C52.6519 18.6865 51.3408 19.8651 49.7679 19.8624ZM49.7756 10.0697C49.1111 10.0697 48.4722 10.1838 47.8744 10.3929L48.7416 13.1466C49.0675 13.0325 49.4139 12.97 49.7731 12.97C51.3485 12.9728 52.6621 14.1568 52.9598 15.7319L55.6487 15.1562C55.097 12.2585 52.6775 10.0724 49.7756 10.0697Z" fill="white"/>
</g>
<defs>
<clipPath id="clip0_1_9">
<rect width="60" height="30" fill="white"/>
</clipPath>
</defs>
</svg>
